<svg id="Layer_1" data-name="Layer 1" xmlns="http://www.w3.org/2000/svg" viewBox="0 0 24 24" stroke-width="1.5" width="24" height="24" color="#3f4531"><defs><style>.cls-6376396cc3a86d32eae6f0e4-1{fill:none;stroke:currentColor;stroke-miterlimit:10;}</style></defs><line class="cls-6376396cc3a86d32eae6f0e4-1" x1="10.09" y1="13.89" x2="13.91" y2="13.89"></line><line class="cls-6376396cc3a86d32eae6f0e4-1" x1="3.41" y1="13.89" x2="7.23" y2="13.89"></line><line class="cls-6376396cc3a86d32eae6f0e4-1" x1="16.77" y1="13.89" x2="20.59" y2="13.89"></line><line class="cls-6376396cc3a86d32eae6f0e4-1" x1="10.09" y1="17.7" x2="13.91" y2="17.7"></line><line class="cls-6376396cc3a86d32eae6f0e4-1" x1="10.09" y1="21.52" x2="13.91" y2="21.52"></line><line class="cls-6376396cc3a86d32eae6f0e4-1" x1="3.41" y1="17.7" x2="7.23" y2="17.7"></line><line class="cls-6376396cc3a86d32eae6f0e4-1" x1="16.77" y1="17.7" x2="20.59" y2="17.7"></line><path class="cls-6376396cc3a86d32eae6f0e4-1" d="M22.5,7c0-3.16-4.69-5.53-10.5-5.53S1.5,3.85,1.5,7v3.06H8.18V7.2a1.91,1.91,0,0,1,1.91-1.9h3.82a1.91,1.91,0,0,1,1.91,1.9v2.87H22.5Z"></path></svg>